<svg width="16" height="12" viewBox="0 0 16 12" fill="none" xmlns="http://www.w3.org/2000/svg">
<path d="M0.209705 5.3871L0.292893 5.29289L5.29289 0.292893C5.68342 -0.0976311 6.31658 -0.0976311 6.70711 0.292893C7.06759 0.653377 7.09532 1.22061 6.7903 1.6129L6.70711 1.70711L3.415 5H15C15.5523 5 16 5.44772 16 6C16 6.51284 15.614 6.93551 15.1166 6.99327L15 7H3.415L6.70711 10.2929C7.06759 10.6534 7.09532 11.2206 6.7903 11.6129L6.70711 11.7071C6.34662 12.0676 5.77939 12.0953 5.3871 11.7903L5.29289 11.7071L0.292893 6.70711C-0.0675907 6.34662 -0.0953203 5.77939 0.209705 5.3871Z" fill="#C9CCD1"/>
</svg>
