<svg width="16" height="16" viewBox="0 0 16 16" fill="none" xmlns="http://www.w3.org/2000/svg">
<path fill-rule="evenodd" clip-rule="evenodd" d="M8 16C12.4183 16 16 12.4183 16 8C16 3.58172 12.4183 0 8 0C3.58172 0 0 3.58172 0 8C0 12.4183 3.58172 16 8 16ZM8.99327 4.88338C8.93551 4.38604 8.51284 4 8 4C7.44772 4 7 4.44772 7 5V8.75L7.00717 8.86975C7.04985 9.22443 7.28 9.53333 7.61538 9.67308L10.6154 10.9231L10.7256 10.9617C11.2069 11.0997 11.7258 10.858 11.9231 10.3846L11.9617 10.2744C12.0997 9.79308 11.858 9.27417 11.3846 9.07692L9 8.083V5L8.99327 4.88338Z" fill="#7D8592"/>
</svg>
