<svg width="23" height="15" viewBox="0 0 23 15" fill="none" xmlns="http://www.w3.org/2000/svg">
<path fill-rule="evenodd" clip-rule="evenodd" d="M13.027 4.03308C13.7517 6.42769 12.8183 9.01313 10.7294 10.3971C12.4634 11.0352 13.9621 12.1837 15.027 13.6906C15.19 13.9215 15.2104 14.2237 15.0801 14.4744C14.9497 14.725 14.6902 14.8823 14.4071 14.8823L0.758285 14.8829C0.475181 14.8829 0.21565 14.7256 0.0852411 14.4749C-0.0451682 14.2243 -0.0247343 13.9221 0.138232 13.6912C1.20309 12.184 2.702 11.0353 4.43628 10.3971C2.34738 9.01313 1.41395 6.42769 2.13865 4.03308C2.86334 1.63846 5.07507 0 7.58282 0C10.0906 0 12.3023 1.63846 13.027 4.03308ZM20.4726 3.30772C21.6404 5.8439 20.7852 8.85062 18.456 10.3971C20.1901 11.0352 21.6888 12.1837 22.7536 13.6906C22.9166 13.9215 22.9371 14.2237 22.8067 14.4743C22.6763 14.725 22.4169 14.8823 22.1338 14.8823L17.8951 14.8829C17.6006 14.8829 17.3326 14.7128 17.208 14.4465C16.6254 13.2007 15.8052 12.0799 14.7931 11.1467C14.778 11.1327 14.7643 11.118 14.7506 11.1032C14.4859 10.8622 14.2093 10.6345 13.9219 10.4211C13.6069 10.1874 13.5228 9.75266 13.728 9.41891C15.2618 6.92095 15.1176 3.74356 13.364 1.39396C13.2149 1.19423 13.174 0.934126 13.2545 0.698436C13.335 0.462746 13.5266 0.281676 13.7669 0.214263C16.4607 -0.540433 19.3047 0.771547 20.4726 3.30772Z" fill="#7D8592"/>
</svg>
