<svg width="18" height="20" viewBox="0 0 18 20" fill="none" xmlns="http://www.w3.org/2000/svg">
<path fill-rule="evenodd" clip-rule="evenodd" d="M3 0H14.0926C14.8274 0 15.5366 0.269636 16.0857 0.757772C17.3241 1.85853 17.4356 3.75474 16.3349 4.99309L11.5463 10.379V16.7639C11.5463 17.0598 11.4912 17.3523 11.3845 17.6269L11.2948 17.8292C10.7065 19.0058 9.27574 19.4827 8.0991 18.8944L7.20467 18.4472C6.18832 17.939 5.54631 16.9002 5.54631 15.7639V10.381L0.757772 4.99309C0.318449 4.49885 0.0561121 3.87498 0.00803794 3.21952L0 3C0 1.34315 1.34315 0 3 0ZM14.0926 2H3C2.44772 2 2 2.44772 2 3C2 3.24491 2.08988 3.48131 2.25259 3.66436L7.29372 9.33564C7.45643 9.51869 7.54631 9.75509 7.54631 10V15.7639C7.54631 16.1427 7.76031 16.489 8.0991 16.6584L8.99353 17.1056C9.18221 17.1999 9.41165 17.1234 9.50599 16.9348C9.53251 16.8817 9.54631 16.8232 9.54631 16.7639V10C9.54631 9.75509 9.63619 9.51869 9.7989 9.33564L14.84 3.66436C15.207 3.25158 15.1698 2.61951 14.757 2.25259C14.5739 2.08988 14.3375 2 14.0926 2Z" fill="#0A1629"/>
</svg>
