<svg width="21" height="19" viewBox="0 0 21 19" fill="none" xmlns="http://www.w3.org/2000/svg">
<path fill-rule="evenodd" clip-rule="evenodd" d="M20.1131 15.1417C21.2813 13.0135 21.2963 10.4606 20.153 8.31957C19.0098 6.17856 16.8557 4.72546 14.3968 4.43648C13.313 1.96537 10.925 0.273163 8.17863 0.0300565C5.43221 -0.21305 2.77042 1.03217 1.24746 3.27253C-0.275505 5.5129 -0.413944 8.387 0.886968 10.7565L0.307165 12.7344C0.176145 13.181 0.30391 13.6617 0.64093 13.9902C0.97795 14.3187 1.47124 14.4433 1.92957 14.3157L3.95948 13.7506C4.7809 14.179 5.67719 14.4543 6.60228 14.5622C7.42916 16.4471 9.03004 17.9072 11.0148 18.5867C12.9995 19.2661 15.1857 19.1025 17.0407 18.1357L19.0705 18.7008C19.5288 18.8284 20.0221 18.7038 20.3591 18.3754C20.6961 18.047 20.824 17.5663 20.693 17.1197L20.1131 15.1417ZM18.6612 14.675C18.5556 14.848 18.5279 15.0558 18.5847 15.2494L19.1581 17.205L17.1512 16.6463C16.9526 16.591 16.7394 16.618 16.5619 16.7209C15.1753 17.5217 13.5165 17.7454 11.9588 17.3419C10.4012 16.9383 9.07545 15.9413 8.28003 14.5753C10.3569 14.3658 12.2498 13.3212 13.5024 11.6933C14.7549 10.0655 15.2534 8.00203 14.8777 6.00059C16.7362 6.42838 18.2748 7.69239 19.0218 9.40495C19.7687 11.1175 19.6348 13.0742 18.6612 14.675Z" fill="#7D8592"/>
</svg>
