<svg width="20" height="20" viewBox="0 0 20 20" fill="none" xmlns="http://www.w3.org/2000/svg">
<path fill-rule="evenodd" clip-rule="evenodd" d="M9 0C10.5977 0 11.9037 1.24892 11.9949 2.82373L12 3V6H17C18.5977 6 19.9037 7.24892 19.9949 8.82373L20 9V19C20 19.5523 19.5523 20 19 20C18.4872 20 18.0645 19.614 18.0067 19.1166L18 19V9C18 8.48716 17.614 8.06449 17.1166 8.00673L17 8H12V19C12 19.5523 11.5523 20 11 20C10.4872 20 10.0645 19.614 10.0067 19.1166L10 19V7V3C10 2.48716 9.61396 2.06449 9.11662 2.00673L9 2H3C2.48716 2 2.06449 2.38604 2.00673 2.88338L2 3V19C2 19.5523 1.55228 20 1 20C0.487164 20 0.0644928 19.614 0.00672773 19.1166L0 19V3C0 1.40232 1.24892 0.0963391 2.82373 0.00509269L3 0H9ZM9 5C9 4.44772 8.55229 4 8 4H4L3.88338 4.00673C3.38604 4.06449 3 4.48716 3 5C3 5.55228 3.44772 6 4 6H8L8.11662 5.99327C8.61396 5.93551 9 5.51284 9 5ZM4 11H8C8.55229 11 9 11.4477 9 12C9 12.5128 8.61396 12.9355 8.11662 12.9933L8 13H4C3.44772 13 3 12.5523 3 12C3 11.4872 3.38604 11.0645 3.88338 11.0067L4 11ZM9 16C9 15.4477 8.55229 15 8 15H4L3.88338 15.0067C3.38604 15.0645 3 15.4872 3 16C3 16.5523 3.44772 17 4 17H8L8.11662 16.9933C8.61396 16.9355 9 16.5128 9 16ZM16 13C16.5523 13 17 13.4477 17 14C17 14.5128 16.614 14.9355 16.1166 14.9933L16 15H14C13.4477 15 13 14.5523 13 14C13 13.4872 13.386 13.0645 13.8834 13.0067L14 13H16ZM17 11C17 10.4477 16.5523 10 16 10H14L13.8834 10.0067C13.386 10.0645 13 10.4872 13 11C13 11.5523 13.4477 12 14 12H16L16.1166 11.9933C16.614 11.9355 17 11.5128 17 11Z" fill="#3F8CFF"/>
</svg>
