<svg width="22" height="22" viewBox="0 0 22 22" fill="none" xmlns="http://www.w3.org/2000/svg">
<path fill-rule="evenodd" clip-rule="evenodd" d="M6.6129 0.209705C6.22061 -0.0953203 5.65338 -0.0675907 5.29289 0.292893C4.90237 0.683418 4.90237 1.31658 5.29289 1.70711L8.58579 5H4C1.79086 5 0 6.79086 0 9V18C0 20.2091 1.79086 22 4 22H18C20.2091 22 22 20.2091 22 18V9C22 6.79086 20.2091 5 18 5H13.4142L16.7071 1.70711L16.7903 1.6129C17.0953 1.22061 17.0676 0.653377 16.7071 0.292893L16.6129 0.209705C16.2206 -0.0953203 15.6534 -0.0675907 15.2929 0.292893L11 4.585L6.70711 0.292893L6.6129 0.209705ZM11.0007 7C11.0003 7 10.9998 7 10.9994 7H4C2.89543 7 2 7.89543 2 9V18C2 19.1046 2.89543 20 4 20H18C19.1046 20 20 19.1046 20 18V9C20 7.89543 19.1046 7 18 7H11.0007Z" fill="#6D5DD3"/>
</svg>
