<svg width="20" height="20" viewBox="0 0 20 20" fill="none" xmlns="http://www.w3.org/2000/svg">
<path fill-rule="evenodd" clip-rule="evenodd" d="M10 0C10.5128 0 10.9355 0.38604 10.9933 0.883379L11 1V2H13C14.6569 2 16 3.34315 16 5V6C16 7.65685 14.6569 9 13 9H11V11H17C18.6569 11 20 12.3431 20 14V15C20 16.6569 18.6569 18 17 18H11V19C11 19.5523 10.5523 20 10 20C9.48716 20 9.06449 19.614 9.00673 19.1166L9 19V18H8C6.34315 18 5 16.6569 5 15V14C5 12.3431 6.34315 11 8 11H9V9H3C1.34315 9 0 7.65685 0 6V5C0 3.34315 1.34315 2 3 2H9V1C9 0.447715 9.44771 0 10 0ZM10 16H17C17.5523 16 18 15.5523 18 15V14C18 13.4477 17.5523 13 17 13H8C7.44772 13 7 13.4477 7 14V15C7 15.5523 7.44772 16 8 16H10ZM13 7H10H3C2.44772 7 2 6.55228 2 6V5C2 4.44772 2.44772 4 3 4H10H13C13.5523 4 14 4.44772 14 5V6C14 6.55228 13.5523 7 13 7Z" fill="#0A1629"/>
</svg>
