<svg width="19" height="19" viewBox="0 0 19 19" fill="none" xmlns="http://www.w3.org/2000/svg">
<path fill-rule="evenodd" clip-rule="evenodd" d="M10.0423 0.636247C9.4024 0.2456 8.5978 0.2456 7.95794 0.636246L1.84895 4.36588C0.559401 5.15317 0.57497 7.03115 1.8774 7.79696L8.00933 11.4024C8.63644 11.7712 9.41432 11.7703 10.0406 11.4001L16.1339 7.79908C17.4329 7.03137 17.4463 5.15655 16.1584 4.37028L10.0423 0.636247ZM16.6032 9.47088C17.0833 9.19802 17.6938 9.36608 17.9666 9.84625C18.22 10.2921 18.0932 10.8503 17.6894 11.1463L17.5913 11.2097L10.9967 14.9572C10.167 15.4329 9.15429 15.4657 8.29646 15.0535L8.11513 14.9584L1.59833 11.207C1.11968 10.9314 0.955028 10.3201 1.23056 9.84142C1.48641 9.39696 2.03184 9.22324 2.49169 9.42129L2.59612 9.47365L9.10952 13.2231C9.3498 13.3601 9.64288 13.377 9.89834 13.2725L10.0053 13.2202L16.6032 9.47088ZM16.5062 13.1307C16.9864 12.8579 17.5968 13.0259 17.8697 13.5061C18.1231 13.952 17.9963 14.5102 17.5924 14.8061L17.4943 14.8696L10.8998 18.617C10.07 19.0928 9.05733 19.1255 8.1995 18.7133L8.01817 18.6182L1.50137 14.8668C1.02273 14.5913 0.858071 13.9799 1.1336 13.5013C1.38945 13.0568 1.93489 12.8831 2.39473 13.0811L2.49916 13.1335L9.01257 16.8829C9.25284 17.02 9.54592 17.0369 9.80139 16.9323L9.9083 16.8801L16.5062 13.1307Z" fill="#3F8CFF"/>
</svg>
