<svg width="12" height="16" viewBox="0 0 12 16" fill="none" xmlns="http://www.w3.org/2000/svg">
<path d="M6.6129 15.7903L6.70711 15.7071L11.7071 10.7071C12.0976 10.3166 12.0976 9.68342 11.7071 9.29289C11.3466 8.93241 10.7794 8.90468 10.3871 9.2097L10.2929 9.29289L7 12.585V1C7 0.447715 6.55228 0 6 0C5.48716 0 5.06449 0.38604 5.00673 0.883379L5 1V12.585L1.70711 9.29289C1.34662 8.93241 0.779392 8.90468 0.387101 9.2097L0.292893 9.29289C-0.0675907 9.65338 -0.0953203 10.2206 0.209705 10.6129L0.292893 10.7071L5.29289 15.7071C5.65338 16.0676 6.22061 16.0953 6.6129 15.7903Z" fill="#0AC947"/>
</svg>
