<svg width="18" height="20" viewBox="0 0 18 20" fill="none" xmlns="http://www.w3.org/2000/svg">
<path fill-rule="evenodd" clip-rule="evenodd" d="M4 1C4 0.447715 4.44772 0 5 0C5.55228 0 6 0.447715 6 1V2H12V1C12 0.447715 12.4477 0 13 0C13.5523 0 14 0.447715 14 1V2C16.2091 2 18 3.79086 18 6V16C18 18.2091 16.2091 20 14 20H4C1.79086 20 0 18.2091 0 16V6C0 3.79086 1.79086 2 4 2V1ZM12 4C12 4.55228 12.4477 5 13 5C13.5523 5 14 4.55228 14 4L14.1493 4.00549C15.1841 4.08183 16 4.94564 16 6V7H2V6L2.00549 5.85074C2.08183 4.81588 2.94564 4 4 4C4 4.55228 4.44772 5 5 5C5.55228 5 6 4.55228 6 4H12Z" fill="#7D8592"/>
</svg>
