<svg width="18" height="18" viewBox="0 0 18 18" fill="none" xmlns="http://www.w3.org/2000/svg">
<path fill-rule="evenodd" clip-rule="evenodd" d="M3 0C1.34315 0 0 1.34315 0 3V5C0 6.65685 1.34315 8 3 8H5C6.65685 8 8 6.65685 8 5V3C8 1.34315 6.65685 0 5 0H3ZM13 0C11.3431 0 10 1.34315 10 3V5C10 6.65685 11.3431 8 13 8H15C16.6569 8 18 6.65685 18 5V3C18 1.34315 16.6569 0 15 0H13ZM0 13C0 11.3431 1.34315 10 3 10H5C6.65685 10 8 11.3431 8 13V15C8 16.6569 6.65685 18 5 18H3C1.34315 18 0 16.6569 0 15V13ZM13 10C11.3431 10 10 11.3431 10 13V15C10 16.6569 11.3431 18 13 18H15C16.6569 18 18 16.6569 18 15V13C18 11.3431 16.6569 10 15 10H13Z" fill="#7D8592"/>
</svg>
