<svg width="22" height="23" viewBox="0 0 22 23" fill="none" xmlns="http://www.w3.org/2000/svg">
<path fill-rule="evenodd" clip-rule="evenodd" d="M11.2412 1.46512C13.1947 -0.488373 16.362 -0.488373 18.3154 1.46512C20.2097 3.35941 20.2671 6.395 18.4873 8.35882L18.3151 8.53972L9.11544 17.7293C7.94344 18.9013 6.04324 18.9013 4.87123 17.7293C3.7461 16.6042 3.7011 14.808 4.73658 13.6288L4.87165 13.4847L13.3616 5.0047C13.7524 4.61441 14.3856 4.61478 14.7759 5.00553C15.1361 5.36623 15.1635 5.93348 14.8583 6.32559L14.775 6.41975L6.28544 14.8993C5.89448 15.2903 5.89448 15.9242 6.28544 16.3151C6.64633 16.676 7.21419 16.7038 7.60722 16.3981L7.70161 16.3147L16.9012 7.12512C18.0737 5.95268 18.0737 4.05177 16.9012 2.87933C15.7757 1.75379 13.9788 1.70877 12.7995 2.74427L12.6554 2.87933L3.46544 12.0693C1.51152 14.0233 1.51152 17.1912 3.46544 19.1451C5.36016 21.0398 8.39642 21.0972 10.3603 19.3174L10.5412 19.1451L19.7312 9.95512C20.1218 9.56459 20.7549 9.56459 21.1454 9.95512C21.5059 10.3156 21.5337 10.8828 21.2286 11.2751L21.1454 11.3693L11.9554 20.5593C9.22047 23.2943 4.7862 23.2943 2.05123 20.5593C-0.621585 17.8865 -0.68233 13.5908 1.86899 10.8442L2.05123 10.6551L11.2412 1.46512Z" fill="#6D5DD3"/>
</svg>
