<svg width="20" height="20" viewBox="0 0 20 20" fill="none" xmlns="http://www.w3.org/2000/svg">
<path fill-rule="evenodd" clip-rule="evenodd" d="M9.99977 1.42842C10.1126 1.25703 10.2374 1.10193 10.3754 0.963924C11.6626 -0.321826 13.7482 -0.321232 15.0347 0.96525C16.1291 2.0596 16.2929 3.73223 15.5258 5H17C18.6569 5 20 6.34315 20 8V9C20 10.3062 19.1652 11.4175 18 11.8293V17C18 18.5977 16.7511 19.9037 15.1763 19.9949L15 20H10H5C3.40232 20 2.09634 18.7511 2.00509 17.1763L2 17V11.8293C0.834808 11.4175 0 10.3062 0 9V8C0 6.34315 1.34315 5 3 5H4.47409C3.70701 3.73244 3.87082 2.05968 4.96525 0.96525C6.25173 -0.321232 8.33735 -0.321826 9.62496 0.964326C9.76274 1.10211 9.88719 1.25706 9.99977 1.42842ZM13.621 4.21115C14.1265 3.70512 14.1263 2.88521 13.6205 2.37946L13.5154 2.28505C13.0068 1.87593 12.2611 1.90715 11.7892 2.37854C11.5344 2.63336 11.2956 3.30811 11.1516 4.20853C11.1221 4.393 11.0975 4.57669 11.0774 4.75608L11.058 4.94L11.419 4.90143L11.7862 4.84932L12.1413 4.78568C12.8727 4.6394 13.4062 4.42599 13.621 4.21115ZM11 18H15C15.5128 18 15.9355 17.614 15.9933 17.1166L16 17V12H11V18ZM9 12V18H5L4.88338 17.9933C4.38604 17.9355 4 17.5128 4 17V12H9ZM11 10H17C17.5523 10 18 9.55228 18 9V8C18 7.44772 17.5523 7 17 7H11V10ZM9 7V10H3C2.44772 10 2 9.55228 2 9V8C2 7.44772 2.44772 7 3 7H9ZM8.21115 2.37894C8.42599 2.59378 8.6394 3.12729 8.78568 3.85869L8.84932 4.21381L8.90143 4.58098L8.94 4.94L8.58098 4.90143C8.33304 4.87042 8.09057 4.83205 7.85869 4.78568C7.1273 4.6394 6.59378 4.42599 6.37854 4.21075C5.87348 3.70512 5.87372 2.88521 6.37946 2.37946C6.88521 1.87372 7.70512 1.87348 8.21115 2.37894Z" fill="#DE92EB"/>
</svg>
