<svg width="24" height="20" viewBox="0 0 24 20" fill="none" xmlns="http://www.w3.org/2000/svg">
<path fill-rule="evenodd" clip-rule="evenodd" d="M9 0C6.23858 0 4 2.23858 4 5C4 7.76142 6.23858 10 9 10C11.7614 10 14 7.76142 14 5C14 2.23858 11.7614 0 9 0ZM9 2C10.6569 2 12 3.34315 12 5C12 6.65685 10.6569 8 9 8C7.34315 8 6 6.65685 6 5C6 3.34315 7.34315 2 9 2ZM17.9954 16.7831C17.8818 14.1223 15.6888 12 13 12H5L4.78311 12.0046C2.12231 12.1182 0 14.3112 0 17V19L0.00672773 19.1166C0.0644928 19.614 0.487164 20 1 20C1.55228 20 2 19.5523 2 19V17L2.00509 16.8237C2.09634 15.2489 3.40232 14 5 14H13L13.1763 14.0051C14.7511 14.0963 16 15.4023 16 17V19L16.0067 19.1166C16.0645 19.614 16.4872 20 17 20C17.5523 20 18 19.5523 18 19V17L17.9954 16.7831ZM19.0318 12.88C19.1698 12.3453 19.7153 12.0237 20.25 12.1618C22.3827 12.7124 23.8948 14.5896 23.9947 16.7731L24 17V19C24 19.5523 23.5523 20 23 20C22.4872 20 22.0645 19.614 22.0067 19.1166L22 19V17.0007C21.999 15.6336 21.0737 14.44 19.75 14.0982C19.2153 13.9602 18.8937 13.4147 19.0318 12.88ZM16.248 0.16125C15.713 0.0242618 15.1682 0.346935 15.0312 0.881961C14.8943 1.41699 15.2169 1.96176 15.752 2.09875C17.0794 2.43863 18.0078 3.63474 18.0078 5.005C18.0078 6.37526 17.0794 7.57137 15.752 7.91125C15.2169 8.04824 14.8943 8.59301 15.0312 9.12804C15.1682 9.66306 15.713 9.98574 16.248 9.84875C18.4604 9.28229 20.0078 7.28876 20.0078 5.005C20.0078 2.72124 18.4604 0.727712 16.248 0.16125Z" fill="#FDC748"/>
</svg>
