<svg width="19" height="19" viewBox="0 0 19 19" fill="none" xmlns="http://www.w3.org/2000/svg">
<path fill-rule="evenodd" clip-rule="evenodd" d="M10.0423 0.636735C9.4024 0.246089 8.5978 0.246088 7.95794 0.636734L1.84895 4.36637C0.559401 5.15366 0.57497 7.03164 1.8774 7.79744L8.00933 11.4029C8.63644 11.7716 9.41432 11.7708 10.0406 11.4006L16.1339 7.79957C17.4329 7.03186 17.4463 5.15704 16.1584 4.37077L10.0423 0.636735ZM16.6032 9.47137C17.0833 9.19851 17.6938 9.36656 17.9666 9.84674C18.22 10.2926 18.0932 10.8508 17.6894 11.1468L17.5913 11.2102L10.9967 14.9576C10.167 15.4334 9.15429 15.4662 8.29646 15.054L8.11513 14.9588L1.59833 11.2075C1.11968 10.9319 0.955028 10.3205 1.23056 9.8419C1.48641 9.39745 2.03184 9.22373 2.49169 9.42178L2.59612 9.47413L9.10952 13.2236C9.3498 13.3606 9.64288 13.3775 9.89834 13.2729L10.0053 13.2207L16.6032 9.47137ZM16.5062 13.1312C16.9864 12.8584 17.5968 13.0264 17.8697 13.5066C18.1231 13.9525 17.9963 14.5107 17.5924 14.8066L17.4943 14.8701L10.8998 18.6175C10.07 19.0933 9.05733 19.126 8.1995 18.7138L8.01817 18.6187L1.50137 14.8673C1.02273 14.5918 0.858071 13.9804 1.1336 13.5018C1.38945 13.0573 1.93489 12.8836 2.39473 13.0816L2.49916 13.134L9.01257 16.8834C9.25284 17.0205 9.54592 17.0373 9.80139 16.9328L9.9083 16.8806L16.5062 13.1312Z" fill="#7D8592"/>
</svg>
