<svg width="21" height="20" viewBox="0 0 21 20" fill="none" xmlns="http://www.w3.org/2000/svg">
<path fill-rule="evenodd" clip-rule="evenodd" d="M20.008 9.13593C19.408 7.13593 17.608 5.63593 15.608 5.63593H14.408C13.708 2.63593 11.208 0.43593 8.20803 0.0359301C5.20803 -0.26407 2.30803 1.33593 0.908032 4.03593C-0.291968 6.53593 -0.55718 10.6556 1.70042 13.0548C2.31486 13.3028 3.113 13.5059 4.03044 13.6673C4.08816 13.3379 4.22831 13.0143 4.45391 12.7252L4.57958 12.5858L8.57958 8.58582C9.29473 7.87067 10.428 7.80407 11.2205 8.4203L11.2686 8.46016L11.408 8.58582L15.408 12.5858C15.7708 12.9486 15.9651 13.4162 15.9908 13.8911C17.6102 13.7009 18.839 13.416 19.31 13.0548C20.308 12.322 20.308 10.5359 20.008 9.13593ZM14.0031 15C14.2559 14.9977 14.508 14.9 14.7009 14.7071C15.0914 14.3166 15.0914 13.6835 14.7009 13.2929L10.7009 9.29293L10.6067 9.20974C10.2144 8.90472 9.64717 8.93245 9.28668 9.29293L5.28668 13.2929L5.20349 13.3871C5.10299 13.5164 5.03862 13.6646 5.01036 13.8182C5.01238 13.8185 5.0144 13.8188 5.01642 13.819C4.95925 14.1313 5.05141 14.4656 5.29289 14.7071L5.3871 14.7903C5.56775 14.9308 5.7855 15.0007 6.00308 15C6.2559 14.9977 6.508 14.9 6.7009 14.7071L8.99379 12.415V14.1314C8.99586 14.1314 8.99793 14.1315 9 14.1316V19L9.00673 19.1166C9.06449 19.614 9.48716 20 10 20C10.0011 20 10.0021 20 10.0032 20C10.5511 19.995 10.9938 19.5492 10.9938 19V12.415L12.7076 14.1282C12.7096 14.1281 12.7116 14.1281 12.7137 14.128L13.2929 14.7071L13.3871 14.7903C13.5678 14.9308 13.7855 15.0007 14.0031 15Z" fill="#3F8CFF"/>
</svg>
